Coordinates
version=1
nRows=10
nColumns=22
inDegrees=yes

Units are S.I. units (second, meters, Newtons, ...)
If the header above contains a line with 'inDegrees', this indicates whether rotational values are in degrees (yes) or radians (no).

endheader
time	pelvis_tilt	pelvis_list	pelvis_rotation	pelvis_tx	pelvis_ty	pelvis_tz	hip_flexion_r	hip_adduction_r	hip_rotation_r	knee_angle_r	ankle_angle_r	subtalar_angle_r	hip_flexion_l	hip_adduction_l	hip_rotation_l	knee_angle_l	ankle_angle_l	subtalar_angle_l	lumbar_extension	lumbar_bending	lumbar_rotation
      3.57000000	      2.60294403	     -0.30138894	    -28.15468738	     -0.49911590	      0.88597753	     -0.07596373	    -13.02950536	      2.31396036	     -3.82981873	    -13.63366496	     24.28147162	     -5.31325657	     23.29228802	     -4.24314954	    -12.31630161	    -20.12949010	      7.89863227	      0.78696753	    -10.61447825	     -2.24297792	      5.93300909
      3.58000000	      2.49162700	     -0.20060587	    -28.41148860	     -0.49419883	      0.88565985	     -0.07475735	    -13.16714127	      2.08882282	     -3.60393447	    -13.68769815	     24.15784842	     -5.07548521	     23.23879905	     -4.13233392	    -12.26511645	    -20.36724037	      7.67030053	      0.36106326	    -10.47124870	     -2.27499796	      5.92804499
      3.59000000	      2.38971726	     -0.09310978	    -28.66763659	     -0.48921454	      0.88543154	     -0.07360005	    -13.27941931	      1.84538065	     -3.35611383	    -13.79875178	     24.01185169	     -4.86711287	     23.20095513	     -4.01179537	    -12.18762320	    -20.63793504	      7.36539401	     -0.01943139	    -10.34093196	     -2.31504997	      5.91609326
      3.60000000	      2.29001689	      0.01930557	    -28.89197343	     -0.48409924	      0.88528790	     -0.07249411	    -13.41130693	      1.60216972	     -3.08219983	    -13.87800177	     23.80717737	     -4.77605833	     23.18887193	     -3.87282987	    -12.03525694	    -20.94456908	      6.99624875	     -0.19405179	    -10.20743262	     -2.35619890	      5.87980325
      3.61000000	      2.19446233	      0.15372061	    -29.13554750	     -0.47892162	      0.88518540	     -0.07141574	    -13.46827133	      1.31706098	     -2.83983895	    -14.08117682	     23.63983904	     -4.40866141	     23.22629601	     -3.73131855	    -11.93494138	    -21.33452804	      6.64492223	     -0.76335819	    -10.06925813	     -2.42321052	      5.90768787
      3.62000000	      2.10889868	      0.27596346	    -29.34441996	     -0.47360335	      0.88517376	     -0.07037700	    -13.56082877	      1.04639681	     -2.57580066	    -14.25524030	     23.40106307	     -4.15378492	     23.27528912	     -3.58659535	    -11.78632772	    -21.77266568	      6.26035391	     -1.09424688	     -9.94379689	     -2.47815159	      5.91986223
      3.63000000	      2.03359538	      0.39788941	    -29.54321244	     -0.46816106	      0.88522982	     -0.06932639	    -13.66261651	      0.77128378	     -2.30238067	    -14.43522954	     23.12849050	     -3.98341793	     23.33173865	     -3.44149805	    -11.63954091	    -22.25699474	      5.88568431	     -1.31149281	     -9.81942904	     -2.54511734	      5.97501090
      3.64000000	      1.94394394	      0.53631192	    -29.73986893	     -0.46262005	      0.88527174	     -0.06831922	    -13.69794815	      0.48152669	     -2.00658614	    -14.70407360	     22.87230333	     -3.61754663	     23.43104541	     -3.29619193	    -11.54223644	    -22.79024903	      5.62275329	     -1.67534215	     -9.67116757	     -2.61104254	      6.01934561
      3.65000000	      1.86903633	      0.67391039	    -29.91667593	     -0.45692742	      0.88537556	     -0.06732144	    -13.75703622	      0.18670882	     -1.71731478	    -14.96332675	     22.55621958	     -3.32668884	     23.50434570	     -3.13592508	    -11.44630859	    -23.31900774	      5.38246519	     -1.92143820	     -9.52776219	     -2.68703451	      6.10024303
      3.66000000	      1.78562087	      0.82636936	    -30.08048477	     -0.45109685	      0.88547533	     -0.06633696	    -13.78463489	     -0.11986473	     -1.45626317	    -15.25821736	     22.19947936	     -2.94872204	     23.57472056	     -2.95732108	    -11.36105743	    -23.83214196	      5.26632948	     -2.18398066	     -9.35526621	     -2.77550575	      6.21274200
